HIERARCHY
ROOT root     
{
	OFFSET 0.0000 0.0000 0.0000
	CHANNELS 6 Xposition Yposition Zposition Zrotation Yrotation Xrotation
	JOINT pelvis   
	{
		OFFSET 0.0000 0.0000 0.0000
		CHANNELS 3 Zrotation Yrotation Xrotation
		JOINT thorax   
		{
			OFFSET 0.0000 23.0750 -5.0000
			CHANNELS 3 Zrotation Yrotation Xrotation
			JOINT rclavicle
			{
				OFFSET 0.0000 28.0009 0.0000
				CHANNELS 3 Zrotation Yrotation Xrotation
				JOINT rhumerus 
				{
					OFFSET -18.5725 5.5939 0.0000
					CHANNELS 3 Zrotation Yrotation Xrotation
					JOINT rradius  
					{
						OFFSET -24.8459 0.0000 0.0000
						CHANNELS 3 Zrotation Yrotation Xrotation
						JOINT rhand    
						{
							OFFSET -24.5477 0.0000 0.0000
							CHANNELS 3 Zrotation Yrotation Xrotation
							End Site
							{
								OFFSET -8.1826 0.0000 0.0000
							}
						}
					}
				}
			}
			JOINT lclavicle
			{
				OFFSET 0.0000 28.0009 0.0000
				CHANNELS 3 Zrotation Yrotation Xrotation
				JOINT lhumerus 
				{
					OFFSET 18.5725 5.5939 0.0000
					CHANNELS 3 Zrotation Yrotation Xrotation
					JOINT lradius  
					{
						OFFSET 24.8459 0.0000 0.0000
						CHANNELS 3 Zrotation Yrotation Xrotation
						JOINT lhand    
						{
							OFFSET 24.5477 0.0000 0.0000
							CHANNELS 3 Zrotation Yrotation Xrotation
							End Site
							{
								OFFSET 8.1826 0.0000 0.0000
							}
						}
					}
				}
			}
			JOINT head     
			{
				OFFSET 0.0000 35.2030 0.0000
				CHANNELS 3 Zrotation Yrotation Xrotation
				End Site
				{
					OFFSET 0.0000 11.7343 0.0000
				}
			}
		}
		JOINT rfemur   
		{
			OFFSET -8.2817 0.0000 0.0000
			CHANNELS 3 Zrotation Yrotation Xrotation
			JOINT rtibia   
			{
				OFFSET 0.0000 -43.3627 0.0000
				CHANNELS 3 Zrotation Yrotation Xrotation
				JOINT rfoot    
				{
					OFFSET 0.0000 -38.2947 0.0000
					CHANNELS 3 Zrotation Yrotation Xrotation
					JOINT rtoes    
					{
						OFFSET 0.0000 0.0000 16.6054
						CHANNELS 3 Zrotation Yrotation Xrotation
						End Site
						{
							OFFSET 0.0000 0.0000 5.5351
						}
					}
				}
			}
		}
		JOINT lfemur   
		{
			OFFSET 8.2817 0.0000 0.0000
			CHANNELS 3 Zrotation Yrotation Xrotation
			JOINT ltibia   
			{
				OFFSET 0.0000 -43.3627 0.0000
				CHANNELS 3 Zrotation Yrotation Xrotation
				JOINT lfoot    
				{
					OFFSET 0.0000 -38.2947 0.0000
					CHANNELS 3 Zrotation Yrotation Xrotation
					JOINT ltoes    
					{
						OFFSET 0.0000 0.0000 16.6054
						CHANNELS 3 Zrotation Yrotation Xrotation
						End Site
						{
							OFFSET 0.0000 0.0000 5.5351
						}
					}
				}
			}
		}
	}
}
MOTION
Frames: 12
Frame Time: 0.008333
-136.4810 83.4825 -34.1799 176.1633 28.1615 -167.9673 0.0000 -0.0000 0.0000 -9.3374 1.2001 -12.3645 32.3310 -2.9653 -0.0000 51.8576 13.6900 15.0326 -0.0000 36.2717 -0.0000 4.0482 6.1234 0.2166 -28.1646 11.6815 -0.0000 -46.3874 11.5336 2.4396 0.0000 -8.8599 -0.0000 4.5373 -0.0634 -0.0025 2.2243 -3.4313 4.0944 -1.9845 6.0994 4.5007 -0.0000 -0.0000 17.4628 -0.0000 13.8115 -3.8967 -0.9571 0.0000 -35.4032 -3.7157 0.8495 -34.6911 -0.0000 -0.0000 13.3799 0.0000 -2.2098 17.0802 -0.6493 0.0000 -27.7235
-136.2680 83.6557 -34.9796 175.8484 28.3910 -168.1755 0.0000 -0.0000 0.0000 -9.8168 1.0122 -12.4892 32.3885 -3.0356 0.0000 52.3165 13.2513 14.7397 -0.0000 35.3016 -0.0000 3.9630 6.1315 0.2123 -28.0243 11.4852 -0.0000 -46.4769 11.1831 2.5930 0.0000 -8.6277 -0.0000 4.6234 -0.0789 -0.0032 2.4462 -3.3669 4.2760 -2.4347 6.1663 4.2441 -0.0000 -0.0000 18.8490 -0.0000 14.0207 -2.8593 -0.7137 0.0000 -37.6449 -3.9651 0.6440 -34.1649 -0.0000 -0.0000 13.6835 -0.0000 -1.8640 16.3414 -0.5246 0.0000 -27.0143
-136.0550 83.8316 -35.7775 175.5625 28.6313 -168.3879 0.0000 -0.0000 0.0000 -10.2382 0.8413 -12.5870 32.4092 -3.0937 0.0000 52.7852 12.7946 14.3822 -0.0000 34.3083 -0.0000 3.9005 6.0893 0.2075 -27.9029 11.2815 0.0000 -46.5717 10.8162 2.8379 0.0000 -8.4701 -0.0000 4.6712 -0.0695 -0.0028 2.6322 -3.2954 4.4550 -2.8858 6.1445 3.9086 -0.0000 -0.0000 20.3622 0.0000 14.3227 -1.7326 -0.4423 -0.0000 -40.3167 -4.1971 0.4456 -33.5610 -0.0000 -0.0000 13.8767 -0.0000 -1.5239 15.5803 -0.4094 -0.0000 -26.3718
-135.8450 84.0064 -36.5716 175.3025 28.8925 -168.5992 0.0000 -0.0000 0.0000 -10.6025 0.6904 -12.6660 32.3994 -3.1374 -0.0000 53.2469 12.3214 13.9726 -0.0000 33.3091 -0.0000 3.8640 5.9963 0.2025 -27.8038 11.0767 -0.0000 -46.6693 10.4356 3.1765 0.0000 -8.3972 -0.0000 4.6829 -0.0361 -0.0015 2.7801 -3.2136 4.6278 -3.3508 6.0146 3.4767 -0.0000 -0.0000 22.0126 0.0000 14.7405 -0.5158 -0.1357 -0.0000 -43.4863 -4.4279 0.2853 -32.8942 -0.0000 -0.0000 13.9578 0.0000 -1.2089 14.8393 -0.3097 -0.0000 -25.8038
-135.6350 84.1756 -37.3509 175.1010 29.1805 -168.7711 0.0000 -0.0000 0.0000 -10.8742 0.5612 -12.7514 32.3587 -3.1680 -0.0000 53.6858 11.8366 13.5352 -0.0000 32.3148 -0.0000 3.8509 5.8587 0.1971 -27.7388 10.8784 -0.0000 -46.7650 10.0464 3.6093 0.0000 -8.4183 -0.0000 4.6623 0.0179 0.0007 2.8813 -3.1173 4.7924 -3.7983 5.8052 2.9179 -0.0000 -0.0000 23.8098 0.0000 15.2547 0.7590 0.2070 -0.0000 -46.6871 -4.6596 0.2457 -32.2271 -0.0000 -0.0000 13.9838 -0.0000 -0.9907 14.1266 -0.2418 -0.0000 -25.2986
-135.4330 84.3363 -38.1195 174.9188 29.5036 -168.9270 0.0000 -0.0000 0.0000 -11.0980 0.4505 -12.8345 32.3046 -3.1901 0.0000 54.0872 11.3519 13.0943 -0.0000 31.3369 -0.0000 3.8586 5.6833 0.1916 -27.6949 10.6900 -0.0000 -46.8604 9.6455 4.1258 0.0000 -8.5354 -0.0000 4.6169 0.0861 0.0035 2.9497 -3.0065 4.9395 -4.2754 5.4809 2.2296 -0.0000 -0.0000 25.7645 0.0000 15.8980 2.1069 0.5999 0.0000 -50.1020 -4.9183 0.3091 -31.5467 -0.0000 -0.0000 13.9309 -0.0000 -0.8390 13.4803 -0.1956 -0.0000 -24.8692
-135.2380 84.4854 -38.8717 174.7612 29.8644 -169.0525 0.0000 -0.0000 0.0000 -11.2707 0.3544 -12.9266 32.2421 -3.1936 0.0000 54.4444 10.8553 12.6427 -0.0000 30.3958 -0.0000 3.8944 5.4737 0.1862 -27.6705 10.5165 0.0000 -46.9538 9.2320 4.7191 0.0000 -8.7489 -0.0000 4.5556 0.1624 0.0065 2.9898 -2.8797 5.0632 -4.7712 5.0648 1.3982 -0.0000 -0.0000 27.8800 0.0000 16.6469 3.5161 1.0505 0.0000 -53.3869 -5.2106 0.5142 -30.8926 -0.0000 -0.0000 13.8419 0.0000 -0.7855 12.8958 -0.1753 0.0000 -24.5035
-135.0550 84.6212 -39.6079 174.6067 30.2638 -169.1590 0.0000 -0.0000 0.0000 -11.4214 0.2665 -13.0220 32.1843 -3.1854 -0.0000 54.7504 10.3605 12.2042 -0.0000 29.4939 -0.0000 3.9514 5.2435 0.1810 -27.6545 10.3581 -0.0000 -47.0453 8.8037 5.3737 0.0000 -9.0560 -0.0000 4.4881 0.2386 0.0094 3.0153 -2.7382 5.1544 -5.3017 4.5624 0.4274 -0.0000 -0.0000 30.1499 -0.0000 17.4848 5.0030 1.5736 -0.0000 -56.5546 -5.5468 0.8452 -30.2685 -0.0000 -0.0000 13.7212 -0.0000 -0.8104 12.3774 -0.1737 0.0000 -24.2030
-134.8830 84.7423 -40.3256 174.4482 30.6995 -169.2474 0.0000 -0.0000 0.0000 -11.5601 0.1797 -13.1203 32.1382 -3.1651 0.0000 55.0041 9.8697 11.7820 -0.0000 28.6365 -0.0000 4.0281 5.0042 0.1761 -27.6396 10.2152 0.0000 -47.1343 8.3572 6.0752 0.0000 -9.4502 -0.0000 4.4246 0.3072 0.0119 3.0366 -2.5832 5.2057 -5.8578 4.0003 -0.6773 -0.0000 -0.0000 32.5588 0.0000 18.3679 6.5726 2.1765 -0.0000 -59.4243 -5.9272 1.3007 -29.6931 -0.0000 -0.0000 13.5975 -0.0000 -0.9147 11.9075 -0.1888 0.0000 -23.9564
-134.7220 84.8483 -41.0241 174.2788 31.1657 -169.3241 0.0000 -0.0000 0.0000 -11.7006 0.0867 -13.2142 32.1114 -3.1379 -0.0000 55.2062 9.3925 11.3863 -0.0000 27.8214 -0.0000 4.1172 4.7704 0.1716 -27.6181 10.0845 0.0000 -47.2191 7.8908 6.8065 0.0000 -9.9236 -0.0000 4.3738 0.3612 0.0138 3.0648 -2.4171 5.2104 -6.4317 3.4026 -1.9002 -0.0000 -0.0000 35.0825 -0.0000 19.2448 8.2293 2.8607 0.0000 -61.8814 -6.3482 1.8599 -29.1708 -0.0000 -0.0000 13.4872 -0.0000 -1.0845 11.4678 -0.2156 -0.0000 -23.7541
-134.5680 84.9393 -41.7009 174.1081 31.6534 -169.3866 0.0000 -0.0000 0.0000 -11.8359 -0.0193 -13.2985 32.1046 -3.1022 0.0000 55.3616 8.9287 11.0079 -0.0000 27.0480 -0.0000 4.2149 4.5533 0.1676 -27.5885 9.9616 0.0000 -47.2964 7.4031 7.5526 0.0000 -10.4664 -0.0000 4.3440 0.3949 0.0150 3.1047 -2.2418 5.1649 -6.9945 2.8025 -3.2217 -0.0000 -0.0000 37.6873 -0.0000 20.0470 9.9657 3.6134 -0.0000 -63.7925 -6.7977 2.5222 -28.7156 -0.0000 -0.0000 13.4263 0.0000 -1.3303 11.0254 -0.2545 0.0000 -23.5768
-134.4200 85.0172 -42.3605 173.9154 32.1552 -169.4585 0.0000 -0.0000 0.0000 -11.9907 -0.1455 -13.3565 32.1244 -3.0581 0.0000 55.4773 8.4785 10.6310 -0.0000 26.3159 -0.0000 4.3177 4.3611 0.1645 -27.5414 9.8469 0.0000 -47.3639 6.8834 8.3083 0.0000 -11.0621 -0.0000 4.3411 0.4046 0.0153 3.1679 -2.0608 5.0666 -7.5534 2.2039 -4.6111 -0.0000 -0.0000 40.3417 0.0000 20.7238 11.7646 4.4111 -0.0000 -65.1244 -7.2676 3.2214 -28.2958 -0.0000 -0.0000 13.3896 0.0000 -1.5975 10.5781 -0.2933 -0.0000 -23.4253
